<svg width="191" height="64" viewBox="0 0 191 64" fill="none" xmlns="http://www.w3.org/2000/svg">
<path d="M45.4069 13.4142C45.3135 12.5304 44.5787 11.8713 43.7026 11.8713C36.8855 11.889 29.9573 9.92936 23.7613 6.1541C23.221 5.8334 22.5519 5.8334 22.0091 6.1541C15.8131 9.92936 8.91772 11.9041 2.05265 11.8713C1.19167 11.8713 0.459466 12.5304 0.363521 13.4142C-1.42155 29.7955 3.67613 50.6743 22.8852 57.3081C42.0943 50.6743 47.192 29.7955 45.4069 13.4142ZM32.3458 40.1718C32.3458 41.1188 31.5985 41.889 30.6592 41.889H15.1137C14.1896 41.889 13.4246 41.1188 13.4246 40.1718V25.0581C13.4246 24.1112 14.1896 23.3384 15.1137 23.3384C15.1289 23.3384 15.8131 23.3561 15.7803 23.3233C16.0832 13.8637 29.672 13.8637 29.9725 23.3233V23.3384H30.6592C31.5985 23.3384 32.3458 24.1112 32.3458 25.0581V40.1718Z" fill="white"/>
<path d="M16.818 38.4672H28.955V26.7601H16.818V38.4672ZM21.1809 31.2728C21.1809 30.3258 21.946 29.5556 22.8852 29.5556C23.8245 29.5556 24.5895 30.3258 24.5895 31.2728V35.3207C24.5895 36.2526 23.8245 37.0228 22.8852 37.0228C21.946 37.0228 21.1809 36.2526 21.1809 35.3207V31.2728Z" fill="white"/>
<path d="M26.5639 23.3233C26.4377 18.4092 19.3025 18.4092 19.1737 23.3233C19.1257 23.3864 26.5639 23.2905 26.5639 23.3233Z" fill="white"/>
<path d="M54.61 16.2279H57.3267V7.50317H54.61V16.2279ZM69.3374 24.9527H72.0542V7.50317H69.3374V24.9527ZM54.61 24.9527H57.352V20.7153C57.352 19.7431 58.1246 18.9703 59.0966 18.9703H67.5701V16.2279H59.0966C56.5794 16.2279 54.61 18.1976 54.61 20.7153V24.9527Z" fill="white"/>
<path d="M76.54 10.2456H92.4895V7.50317H76.54V10.2456ZM87.6292 24.9527H92.4895V22.2102H87.6292C86.6824 22.2102 85.8845 21.4375 85.8845 20.4653V11.9905H83.1678V20.4653C83.1678 22.9577 85.1372 24.9527 87.6292 24.9527ZM76.54 24.9527H83.1451V22.2102H76.54V24.9527Z" fill="white"/>
<path d="M111.68 22.2102H114.419V11.9905C114.419 9.47287 112.452 7.50317 109.935 7.50317H99.7168V10.2456H109.935C110.907 10.2456 111.68 11.0183 111.68 11.9905V22.2102ZM96.9749 24.9527H111.68V22.2102H99.7168V10.2456H96.9749V24.9527Z" fill="white"/>
<path d="M121.647 10.2456H136.349V7.50317H121.647V10.2456ZM123.392 24.9527H136.349V22.2102H123.392C122.442 22.2102 121.647 21.4375 121.647 20.4653V10.2456H118.905V20.4653C118.905 22.9577 120.897 24.9527 123.392 24.9527ZM123.366 17.5991H134.604V14.8567H123.366V17.5991Z" fill="white"/>
<path d="M151.303 24.9527C154.017 24.9527 154.666 20.8138 155.239 17.7001C155.936 14.036 156.734 10.2456 159.027 10.2456V7.50317C154.717 7.50317 153.57 11.9653 152.548 17.1749C152.273 18.6471 151.851 21.5133 151.303 21.9628C150.828 21.637 150.306 18.6724 150.005 17.1496C149.033 12.0663 147.839 7.50317 143.577 7.50317V10.2456C145.87 10.2456 146.617 14.084 147.314 17.6496C147.963 20.9653 148.634 24.9527 151.303 24.9527ZM140.835 24.9527H143.577V10.2456H140.835V24.9527ZM159.027 24.9527H161.769V10.2456H159.027V24.9527Z" fill="white"/>
<path d="M168.996 10.2456H183.698V7.50317H168.996V10.2456ZM170.74 24.9527H183.698V22.2102H170.74C169.791 22.2102 168.996 21.4375 168.996 20.4653V10.2456H166.254V20.4653C166.254 22.9577 168.246 24.9527 170.74 24.9527ZM170.715 17.5991H181.953V14.8567H170.715V17.5991Z" fill="white"/>
<path d="M54.61 56.9526H57.352V54.2102H54.61V56.9526Z" fill="white"/>
<path d="M67.0714 56.9527H78.5342V54.2102H67.0714C66.0993 54.2102 65.3267 53.4375 65.3267 52.4653V39.5032H62.5847V52.4653C62.5847 54.983 64.5541 56.9527 67.0714 56.9527Z" fill="white"/>
<path d="M97.7243 54.2102H100.464V43.9905C100.464 41.3491 98.5953 39.5032 95.9796 39.5032H85.7615V42.2456H95.9796C96.9264 42.2456 97.7243 43.0183 97.7243 43.9905V54.2102ZM87.5062 56.9527H97.7243V54.2102H87.5062C86.5341 54.2102 85.7615 53.4375 85.7615 52.4653V42.2456H83.0195V52.4653C83.0195 55.1092 84.8627 56.9527 87.5062 56.9527Z" fill="white"/>
<path d="M109.436 56.9527H120.899V54.2102H109.436C108.464 54.2102 107.692 53.4375 107.692 52.4653V39.5032H104.95V52.4653C104.95 54.983 106.919 56.9527 109.436 56.9527Z" fill="white"/>
</svg>
