<svg width="34" height="34" viewBox="0 0 34 34" fill="none" xmlns="http://www.w3.org/2000/svg">
<path d="M14.1667 21.25L14.1667 17" stroke="black" stroke-width="2" stroke-linecap="round"/>
<path d="M19.8333 21.25L19.8333 17" stroke="black" stroke-width="2" stroke-linecap="round"/>
<path d="M4.25 9.91667H29.75H29.5C27.6144 9.91667 26.6716 9.91667 26.0858 10.5025C25.5 11.0882 25.5 12.031 25.5 13.9167V24.3333C25.5 26.219 25.5 27.1618 24.9142 27.7475C24.3284 28.3333 23.3856 28.3333 21.5 28.3333H12.5C10.6144 28.3333 9.67157 28.3333 9.08579 27.7475C8.5 27.1618 8.5 26.219 8.5 24.3333V13.9167C8.5 12.031 8.5 11.0882 7.91421 10.5025C7.32843 9.91667 6.38562 9.91667 4.5 9.91667H4.25Z" stroke="black" stroke-width="2" stroke-linecap="round"/>
<path d="M14.2632 4.775C14.4246 4.62439 14.7803 4.4913 15.2752 4.39637C15.77 4.30145 16.3763 4.25 17 4.25C17.6237 4.25 18.23 4.30145 18.7248 4.39637C19.2196 4.4913 19.5753 4.62439 19.7368 4.775" stroke="black" stroke-width="2" stroke-linecap="round"/>
</svg>
